<svg width="24" height="24" viewBox="0 0 24 24" fill="none" xmlns="http://www.w3.org/2000/svg">
<path d="M4 9.65685C4 8.83935 4 8.4306 4.15224 8.06306C4.30448 7.69552 4.59351 7.40649 5.17157 6.82843L5.82843 6.17157C6.40649 5.59351 6.69552 5.30448 7.06306 5.15224C7.4306 5 7.83935 5 8.65685 5H15.3431C16.1606 5 16.5694 5 16.9369 5.15224C17.3045 5.30448 17.5935 5.59351 18.1716 6.17157L18.8284 6.82843C19.4065 7.40649 19.6955 7.69552 19.8478 8.06306C20 8.4306 20 8.83935 20 9.65685V16C20 17.8856 20 18.8284 19.4142 19.4142C18.8284 20 17.8856 20 16 20H8C6.11438 20 5.17157 20 4.58579 19.4142C4 18.8284 4 17.8856 4 16V9.65685Z" stroke="white" stroke-width="1.5"/>
<path d="M4 10H20" stroke="white" stroke-width="1.5" stroke-linecap="round"/>
<path d="M14.55 10L9.45 10C9.23787 10 9.1318 10 9.0659 10.0667C9 10.1334 9 10.2408 9 10.4555L9 14.2515C9 14.9482 9 15.2966 9.08902 15.4839C9.28773 15.9019 9.76499 16.102 10.1975 15.9486C10.3912 15.8799 10.6346 15.6336 11.1213 15.1409C11.3467 14.9127 11.4595 14.7986 11.5793 14.7345C11.8425 14.5936 12.1575 14.5936 12.4207 14.7345C12.5405 14.7986 12.6533 14.9127 12.8787 15.1409C13.3654 15.6336 13.6088 15.8799 13.8025 15.9486C14.235 16.102 14.7123 15.9019 14.911 15.4839C15 15.2966 15 14.9482 15 14.2515V10.4555C15 10.2408 15 10.1334 14.9341 10.0667C14.8682 10 14.7621 10 14.55 10Z" fill="white"/>
</svg>
