<svg width="12" height="12" viewBox="0 0 12 12" fill="none" xmlns="http://www.w3.org/2000/svg">
<path d="M5.68455 2.61367C6.45042 2.61367 7.15365 2.87588 7.71502 3.31195L9.43797 1.66819C8.43623 0.785125 7.12494 0.245117 5.68455 0.245117C3.50188 0.245117 1.60906 1.47672 0.656494 3.28153L2.57238 4.79405C3.0365 3.5229 4.25275 2.61367 5.68455 2.61367Z" fill="#F44336"/>
<path d="M11.3199 6.64095C11.3495 6.40805 11.3691 6.17048 11.3691 5.92951C11.3691 5.52314 11.3247 5.12744 11.2437 4.74524H5.68457V7.11379H8.75715C8.50859 7.75982 8.06602 8.30648 7.50268 8.68625L9.42568 10.2044C10.4451 9.30964 11.1426 8.05664 11.3199 6.64095Z" fill="#2196F3"/>
<path d="M2.36855 5.92961C2.36855 5.53006 2.44286 5.14875 2.57236 4.79402L0.656469 3.28149C0.238908 4.07267 0 4.97279 0 5.92961C0 6.87573 0.234513 7.76587 0.643401 8.55063L2.56172 7.03616C2.43887 6.68964 2.36855 6.31825 2.36855 5.92961Z" fill="#FFC107"/>
<path d="M5.68443 9.24573C4.24173 9.24573 3.01764 8.32271 2.56163 7.03632L0.643311 8.55078C1.59122 10.3701 3.49107 11.6143 5.68443 11.6143C7.11872 11.6143 8.42663 11.0814 9.42554 10.2047L7.50254 8.6865C6.98297 9.03678 6.36108 9.24573 5.68443 9.24573Z" fill="#00B060"/>
<path opacity="0.1" d="M5.68472 11.4958C4.01173 11.4958 2.50741 10.8055 1.44385 9.70581C2.48498 10.8742 3.99663 11.6142 5.68472 11.6142C7.35719 11.6142 8.85633 10.8888 9.89511 9.73871C8.8347 10.8206 7.34181 11.4958 5.68472 11.4958Z" fill="#00202E"/>
<path opacity="0.1" d="M5.68457 6.99548V7.11391H8.75715L8.80513 6.99548H5.68457Z" fill="#00202E"/>
<path d="M11.3665 5.99907C11.3669 5.97574 11.3691 5.95281 11.3691 5.92942C11.3691 5.9228 11.3681 5.91641 11.368 5.90979C11.3677 5.93963 11.3662 5.96912 11.3665 5.99907Z" fill="#E6E6E6"/>
<path opacity="0.2" d="M5.68457 4.74524V4.86367H11.2675C11.2601 4.82458 11.2519 4.78404 11.2437 4.74524H5.68457Z" fill="white"/>
<path d="M11.2436 4.74537H5.68452V7.11392H8.75711C8.27929 8.35579 7.09484 9.24561 5.68452 9.24561C3.85318 9.24561 2.36855 7.76099 2.36855 5.92964C2.36855 4.09826 3.85318 2.61367 5.68452 2.61367C6.3486 2.61367 6.96066 2.81768 7.47918 3.15402C7.55855 3.2056 7.64043 3.25403 7.715 3.31195L9.43795 1.66819L9.39909 1.63829C8.40217 0.774283 7.10733 0.245117 5.68452 0.245117C2.54504 0.245117 0 2.79015 0 5.92964C0 9.0691 2.54504 11.6142 5.68452 11.6142C8.58253 11.6142 10.969 9.44398 11.3198 6.64107C11.3494 6.40818 11.369 6.1706 11.369 5.92964C11.369 5.52327 11.3247 5.12757 11.2436 4.74537Z" fill="url(#paint0_linear_1273_61708)"/>
<path opacity="0.1" d="M7.47928 3.03544C6.96076 2.6991 6.3487 2.49509 5.68462 2.49509C3.85328 2.49509 2.36865 3.97968 2.36865 5.81106C2.36865 5.83104 2.36892 5.84665 2.36927 5.86657C2.40122 4.06283 3.87325 2.61351 5.68462 2.61351C6.3487 2.61351 6.96076 2.81752 7.47928 3.15387C7.55865 3.20545 7.64053 3.25388 7.7151 3.31179L9.43805 1.66803L7.7151 3.19336C7.64053 3.13545 7.55865 3.08702 7.47928 3.03544Z" fill="#00202E"/>
<path opacity="0.2" d="M5.68452 0.363545C7.09383 0.363545 8.37658 0.883863 9.36966 1.73333L9.43795 1.66819L9.38583 1.6228C8.38892 0.758789 7.10733 0.245117 5.68452 0.245117C2.54504 0.245117 0 2.79015 0 5.92964C0 5.94962 0.00277566 5.9689 0.00297803 5.98885C0.0350714 2.87698 2.56502 0.363545 5.68452 0.363545Z" fill="white"/>
<defs>
<linearGradient id="paint0_linear_1273_61708" x1="0" y1="5.92964" x2="11.369" y2="5.92964" gradientUnits="userSpaceOnUse">
<stop stop-color="white" stop-opacity="0.2"/>
<stop offset="1" stop-color="white" stop-opacity="0"/>
</linearGradient>
</defs>
</svg>
